<svg fill="none" viewBox="0 0 20 20" xmlns="http://www.w3.org/2000/svg"><path d="M12 3.006c0-.873-1.04-1.327-1.68-.733L6.448 5.866a.5.5 0 0 1-.34.134H3.5A1.5 1.5 0 0 0 2 7.5v5A1.5 1.5 0 0 0 3.5 14h2.607a.5.5 0 0 1 .34.133l3.873 3.594c.64.593 1.68.14 1.68-.733V3.006ZM15.254 4.627a.5.5 0 0 1 .706.04 8 8 0 0 1 0 10.666.5.5 0 1 1-.745-.667 7 7 0 0 0 0-9.333.5.5 0 0 1 .039-.706Z" fill="#ffffff" class="fill-212121"></path><path d="M14.079 12.933a.5.5 0 0 1-.184-.683 4.498 4.498 0 0 0 0-4.5.5.5 0 1 1 .865-.5 5.498 5.498 0 0 1 .001 5.5.5.5 0 0 1-.682.183Z" fill="#ffffff" class="fill-212121"></path></svg>